<mxfile host="app.diagrams.net" agent="Mozilla/5.0 (X11; Linux x86_64; rv:138.0) Gecko/20100101 Firefox/138.0" version="28.1.2">
  <diagram name="Page-1" id="EXom38ow8tT7wOg7XykT">
    <mxGraphModel dx="2388" dy="2008" grid="1" gridSize="10" guides="1" tooltips="1" connect="1" arrows="1" fold="1" page="1" pageScale="1" pageWidth="850" pageHeight="1100" math="0" shadow="0">
      <root>
        <mxCell id="0" />
        <mxCell id="1" parent="0" />
        <mxCell id="h5DotFXTIVLkTxNQUzID-68" style="edgeStyle=orthogonalEdgeStyle;shape=pipe;rounded=0;orthogonalLoop=1;jettySize=auto;html=1;exitX=0;exitY=0;exitDx=190;exitDy=190;exitPerimeter=0;fillColor=#d0cee2;strokeColor=#56517e;width=10;curved=1;endArrow=none;endFill=0;entryX=0;entryY=0.75;entryDx=0;entryDy=0;flowAnimation=0;" edge="1" parent="1" source="h5DotFXTIVLkTxNQUzID-1" target="h5DotFXTIVLkTxNQUzID-59">
          <mxGeometry relative="1" as="geometry">
            <mxPoint x="470" y="560" as="targetPoint" />
          </mxGeometry>
        </mxCell>
        <mxCell id="h5DotFXTIVLkTxNQUzID-1" value="&lt;i&gt;&lt;b&gt;&lt;font style=&quot;font-size: 17px;&quot;&gt;ESP32-ISO-POE&lt;/font&gt;&lt;/b&gt;&lt;/i&gt;" style="shape=cube;whiteSpace=wrap;html=1;boundedLbl=1;backgroundOutline=1;darkOpacity=0.05;darkOpacity2=0.1;" vertex="1" parent="1">
          <mxGeometry x="25" y="290" width="190" height="360" as="geometry" />
        </mxCell>
        <mxCell id="h5DotFXTIVLkTxNQUzID-3" value="&lt;b&gt;&lt;font style=&quot;font-size: 14px;&quot;&gt;Config Webpage&lt;/font&gt;&lt;/b&gt;" style="swimlane;fontStyle=0;childLayout=stackLayout;horizontal=1;startSize=30;horizontalStack=0;resizeParent=1;resizeParentMax=0;resizeLast=0;collapsible=1;marginBottom=0;whiteSpace=wrap;html=1;fillColor=#b0e3e6;strokeColor=#0e8088;" vertex="1" parent="1">
          <mxGeometry x="45" y="80" width="150" height="120" as="geometry" />
        </mxCell>
        <mxCell id="h5DotFXTIVLkTxNQUzID-4" value="Sensor Data" style="text;strokeColor=#0e8088;fillColor=#b0e3e6;align=left;verticalAlign=middle;spacingLeft=4;spacingRight=4;overflow=hidden;points=[[0,0.5],[1,0.5]];portConstraint=eastwest;rotatable=0;whiteSpace=wrap;html=1;" vertex="1" parent="h5DotFXTIVLkTxNQUzID-3">
          <mxGeometry y="30" width="150" height="30" as="geometry" />
        </mxCell>
        <mxCell id="h5DotFXTIVLkTxNQUzID-5" value="MQTTs config Parameters" style="text;strokeColor=#0e8088;fillColor=#b0e3e6;align=left;verticalAlign=middle;spacingLeft=4;spacingRight=4;overflow=hidden;points=[[0,0.5],[1,0.5]];portConstraint=eastwest;rotatable=0;whiteSpace=wrap;html=1;" vertex="1" parent="h5DotFXTIVLkTxNQUzID-3">
          <mxGeometry y="60" width="150" height="30" as="geometry" />
        </mxCell>
        <mxCell id="h5DotFXTIVLkTxNQUzID-6" value="OTA upload" style="text;strokeColor=#0e8088;fillColor=#b0e3e6;align=left;verticalAlign=middle;spacingLeft=4;spacingRight=4;overflow=hidden;points=[[0,0.5],[1,0.5]];portConstraint=eastwest;rotatable=0;whiteSpace=wrap;html=1;" vertex="1" parent="h5DotFXTIVLkTxNQUzID-3">
          <mxGeometry y="90" width="150" height="30" as="geometry" />
        </mxCell>
        <mxCell id="h5DotFXTIVLkTxNQUzID-97" style="edgeStyle=orthogonalEdgeStyle;shape=pipe;rounded=1;orthogonalLoop=1;jettySize=auto;html=1;fillColor=#bac8d3;strokeColor=#23445d;curved=0;startArrow=oval;startFill=1;" edge="1" parent="1">
          <mxGeometry relative="1" as="geometry">
            <mxPoint x="560" y="-10" as="sourcePoint" />
            <mxPoint x="120" y="70" as="targetPoint" />
            <Array as="points">
              <mxPoint x="120" y="-10" />
            </Array>
          </mxGeometry>
        </mxCell>
        <mxCell id="h5DotFXTIVLkTxNQUzID-104" style="edgeStyle=orthogonalEdgeStyle;shape=pipe;rounded=0;orthogonalLoop=1;jettySize=auto;html=1;entryX=0.5;entryY=0;entryDx=0;entryDy=0;fillColor=#bac8d3;strokeColor=#23445d;endArrow=none;endFill=0;startArrow=oval;startFill=0;" edge="1" parent="1" target="h5DotFXTIVLkTxNQUzID-45">
          <mxGeometry relative="1" as="geometry">
            <mxPoint x="605" y="20" as="sourcePoint" />
          </mxGeometry>
        </mxCell>
        <mxCell id="h5DotFXTIVLkTxNQUzID-16" value="" style="verticalLabelPosition=bottom;verticalAlign=top;html=1;shape=mxgraph.basic.plaque_frame;dx=10;whiteSpace=wrap;movable=1;resizable=1;rotatable=1;deletable=1;editable=1;locked=0;connectable=1;fillColor=#fad7ac;strokeColor=#b46504;" vertex="1" parent="1">
          <mxGeometry x="-50" y="780" width="180" height="60" as="geometry" />
        </mxCell>
        <mxCell id="h5DotFXTIVLkTxNQUzID-17" value="&lt;font style=&quot;font-size: 14px;&quot;&gt;&lt;b&gt;Router / Access Point&lt;/b&gt;&lt;/font&gt;" style="text;html=1;align=center;verticalAlign=middle;resizable=1;points=[];autosize=1;strokeColor=none;fillColor=none;movable=1;rotatable=1;deletable=1;editable=1;locked=0;connectable=1;" vertex="1" parent="1">
          <mxGeometry x="-45" y="795" width="170" height="30" as="geometry" />
        </mxCell>
        <mxCell id="h5DotFXTIVLkTxNQUzID-21" style="edgeStyle=orthogonalEdgeStyle;shape=pipe;rounded=0;orthogonalLoop=1;jettySize=auto;html=1;exitX=0;exitY=0;exitDx=105;exitDy=360;exitPerimeter=0;entryX=0.5;entryY=0;entryDx=0;entryDy=0;entryPerimeter=0;fillColor=#fad7ac;strokeColor=#b46504;endArrow=none;endFill=0;width=18;curved=1;flowAnimation=0;" edge="1" parent="1" source="h5DotFXTIVLkTxNQUzID-1" target="h5DotFXTIVLkTxNQUzID-16">
          <mxGeometry relative="1" as="geometry">
            <Array as="points">
              <mxPoint x="130" y="740" />
              <mxPoint x="40" y="740" />
            </Array>
          </mxGeometry>
        </mxCell>
        <mxCell id="h5DotFXTIVLkTxNQUzID-49" style="edgeStyle=orthogonalEdgeStyle;shape=pipe;rounded=1;orthogonalLoop=1;jettySize=auto;html=1;entryX=0;entryY=0.75;entryDx=0;entryDy=0;fillColor=#fad7ac;strokeColor=#b46504;curved=0;endArrow=none;endFill=0;startArrow=none;startFill=0;width=5.294117647058824;exitX=1;exitY=0.5;exitDx=0;exitDy=0;" edge="1" parent="1" source="h5DotFXTIVLkTxNQUzID-25" target="h5DotFXTIVLkTxNQUzID-48">
          <mxGeometry relative="1" as="geometry">
            <mxPoint x="265" y="820" as="sourcePoint" />
            <mxPoint x="585" y="819.9999999999995" as="targetPoint" />
          </mxGeometry>
        </mxCell>
        <mxCell id="h5DotFXTIVLkTxNQUzID-53" value="&lt;b&gt;Running on&lt;/b&gt;" style="edgeLabel;html=1;align=center;verticalAlign=middle;resizable=0;points=[];fontSize=12;" vertex="1" connectable="0" parent="h5DotFXTIVLkTxNQUzID-49">
          <mxGeometry x="-0.179" relative="1" as="geometry">
            <mxPoint x="-40" y="-20" as="offset" />
          </mxGeometry>
        </mxCell>
        <mxCell id="h5DotFXTIVLkTxNQUzID-25" value="&lt;div&gt;&lt;b&gt;&lt;font style=&quot;font-size: 15px;&quot;&gt;Script DHCP&lt;/font&gt;&lt;/b&gt;&lt;/div&gt;&lt;div align=&quot;center&quot;&gt;&lt;font size=&quot;1&quot;&gt;192.168.111.1/24&lt;/font&gt;&lt;/div&gt;" style="label;whiteSpace=wrap;html=1;image=img/clipart/Gear_128x128.png;fillColor=#fad7ac;strokeColor=#b46504;" vertex="1" parent="1">
          <mxGeometry x="230" y="710" width="150" height="60" as="geometry" />
        </mxCell>
        <mxCell id="h5DotFXTIVLkTxNQUzID-31" style="edgeStyle=orthogonalEdgeStyle;shape=pipe;rounded=0;orthogonalLoop=1;jettySize=auto;html=1;fillColor=#fad7ac;strokeColor=#b46504;endArrow=none;endFill=0;width=18;curved=1;flowAnimation=0;entryX=0;entryY=0.5;entryDx=0;entryDy=0;exitX=0.791;exitY=1.001;exitDx=0;exitDy=0;exitPerimeter=0;" edge="1" parent="1" source="h5DotFXTIVLkTxNQUzID-1" target="h5DotFXTIVLkTxNQUzID-25">
          <mxGeometry relative="1" as="geometry">
            <mxPoint x="130" y="730" as="sourcePoint" />
            <mxPoint x="190" y="740" as="targetPoint" />
            <Array as="points" />
          </mxGeometry>
        </mxCell>
        <mxCell id="h5DotFXTIVLkTxNQUzID-45" value="&lt;table border=&quot;1&quot; width=&quot;100%&quot; height=&quot;100%&quot; cellpadding=&quot;4&quot; style=&quot;width:100%;height:100%;border-collapse:collapse;&quot;&gt;&lt;tbody&gt;&lt;tr&gt;&lt;th align=&quot;center&quot;&gt;&lt;font style=&quot;font-size: 15px;&quot;&gt;Home Assistant&lt;/font&gt;&lt;/th&gt;&lt;/tr&gt;&lt;tr&gt;&lt;td&gt;&lt;div align=&quot;center&quot;&gt;&lt;font style=&quot;font-size: 13px;&quot;&gt;&lt;b&gt;- ESP 1 -&lt;/b&gt;&lt;br&gt;&lt;/font&gt;&lt;/div&gt;&lt;div align=&quot;left&quot;&gt;&lt;font style=&quot;font-size: 13px;&quot;&gt;- Umiditate: &lt;span style=&quot;white-space: pre;&quot;&gt;&#x9;&lt;span style=&quot;white-space: pre;&quot;&gt;&#x9;&lt;/span&gt;           43.95%&lt;/span&gt;&lt;br&gt;- Temperatura:&lt;span style=&quot;white-space: pre;&quot;&gt;&#x9;           &lt;/span&gt;25.2&lt;span lang=&quot;en&quot; class=&quot;BxUVEf ILfuVd&quot;&gt;&lt;span class=&quot;hgKElc&quot;&gt; °C&lt;/span&gt;&lt;/span&gt;&lt;br&gt;- Presiune:&lt;span style=&quot;white-space: pre;&quot;&gt;&#x9;      100,094.42hPa&lt;/span&gt;&lt;/font&gt;&lt;/div&gt;&lt;/td&gt;&lt;/tr&gt;&lt;tr&gt;&lt;td align=&quot;center&quot;&gt;&lt;div align=&quot;center&quot;&gt;&lt;font style=&quot;font-size: 13px;&quot;&gt;&lt;b&gt;- ESP 2 -&lt;/b&gt;&lt;br&gt;&lt;/font&gt;&lt;/div&gt;&lt;div align=&quot;left&quot;&gt;&lt;font style=&quot;font-size: 13px;&quot;&gt;- Umiditate: &lt;span style=&quot;white-space: pre;&quot;&gt;&#x9;&lt;span style=&quot;white-space: pre;&quot;&gt;&#x9;&lt;/span&gt;           43.58%&lt;/span&gt;&lt;br&gt;- Temperatura:&lt;span style=&quot;white-space: pre;&quot;&gt;&#x9;           &lt;/span&gt;25.3&lt;span lang=&quot;en&quot; class=&quot;BxUVEf ILfuVd&quot;&gt;&lt;span class=&quot;hgKElc&quot;&gt; °C&lt;/span&gt;&lt;/span&gt;&lt;br&gt;- Presiune:&lt;span style=&quot;white-space: pre;&quot;&gt;&#x9;      100,091.98hPa&lt;/span&gt;&lt;/font&gt;&lt;/div&gt;&lt;/td&gt;&lt;/tr&gt;&lt;/tbody&gt;&lt;/table&gt;" style="text;html=1;whiteSpace=wrap;strokeColor=#10739e;fillColor=#b1ddf0;overflow=fill;gradientColor=none;rounded=0;glass=1;shadow=0;" vertex="1" parent="1">
          <mxGeometry x="497.5" y="160" width="215" height="230" as="geometry" />
        </mxCell>
        <mxCell id="h5DotFXTIVLkTxNQUzID-48" value="&lt;div&gt;&lt;b&gt;&lt;font style=&quot;font-size: 16px;&quot;&gt;Main Server&lt;/font&gt;&lt;/b&gt;&lt;/div&gt;&lt;div&gt;&lt;b&gt;&lt;font style=&quot;font-size: 16px;&quot;&gt;&lt;br&gt;&lt;/font&gt;&lt;/b&gt;&lt;/div&gt;&lt;div&gt;&lt;b&gt;&lt;font style=&quot;font-size: 16px;&quot;&gt;&lt;br&gt;&lt;/font&gt;&lt;/b&gt;&lt;/div&gt;&lt;div&gt;&lt;b&gt;&lt;font style=&quot;font-size: 16px;&quot;&gt;&lt;br&gt;&lt;/font&gt;&lt;/b&gt;&lt;/div&gt;" style="shape=process;whiteSpace=wrap;html=1;backgroundOutline=1;fillColor=#f5f5f5;gradientColor=#b3b3b3;strokeColor=#666666;" vertex="1" parent="1">
          <mxGeometry x="770" y="665" width="170" height="100" as="geometry" />
        </mxCell>
        <mxCell id="h5DotFXTIVLkTxNQUzID-59" value="&lt;div&gt;&lt;b&gt;&lt;font style=&quot;font-size: 16px;&quot;&gt;MQTTs Broker&lt;/font&gt;&lt;/b&gt;&lt;/div&gt;&lt;div&gt;&lt;b&gt;&lt;font style=&quot;font-size: 16px;&quot;&gt;&lt;br&gt;&lt;/font&gt;&lt;/b&gt;&lt;/div&gt;&lt;div&gt;&lt;b&gt;&lt;font style=&quot;font-size: 16px;&quot;&gt;&lt;br&gt;&lt;/font&gt;&lt;/b&gt;&lt;/div&gt;&lt;div&gt;&lt;b&gt;&lt;font style=&quot;font-size: 16px;&quot;&gt;&lt;br&gt;&lt;/font&gt;&lt;/b&gt;&lt;/div&gt;" style="shape=ext;double=1;rounded=1;whiteSpace=wrap;html=1;strokeWidth=2;fillColor=#d0cee2;glass=0;arcSize=32;strokeColor=#56517e;" vertex="1" parent="1">
          <mxGeometry x="490" y="500" width="230" height="130" as="geometry" />
        </mxCell>
        <mxCell id="h5DotFXTIVLkTxNQUzID-60" value="&lt;div&gt;&lt;b&gt;&lt;font style=&quot;font-size: 16px;&quot;&gt;Sensor&lt;/font&gt;&lt;/b&gt;&lt;/div&gt;&lt;div&gt;&lt;b&gt;&lt;font style=&quot;font-size: 16px;&quot;&gt;&lt;br&gt;&lt;/font&gt;&lt;/b&gt;&lt;/div&gt;&lt;div&gt;&lt;b&gt;&lt;font style=&quot;font-size: 16px;&quot;&gt;&lt;br&gt;&lt;/font&gt;&lt;/b&gt;&lt;/div&gt;&lt;div&gt;&lt;b&gt;&lt;font style=&quot;font-size: 16px;&quot;&gt;&lt;br&gt;&lt;/font&gt;&lt;/b&gt;&lt;/div&gt;" style="shape=offPageConnector;whiteSpace=wrap;html=1;fillColor=#fad9d5;strokeColor=#ae4132;" vertex="1" parent="1">
          <mxGeometry x="-235" y="510" width="100" height="90" as="geometry" />
        </mxCell>
        <mxCell id="h5DotFXTIVLkTxNQUzID-62" style="edgeStyle=orthogonalEdgeStyle;shape=pipe;rounded=0;orthogonalLoop=1;jettySize=auto;html=1;exitX=1;exitY=0.25;exitDx=0;exitDy=0;entryX=0;entryY=0;entryDx=0;entryDy=170;entryPerimeter=0;curved=1;endArrow=none;endFill=0;fillColor=#fad9d5;strokeColor=#ae4132;" edge="1" parent="1" source="h5DotFXTIVLkTxNQUzID-60" target="h5DotFXTIVLkTxNQUzID-1">
          <mxGeometry relative="1" as="geometry" />
        </mxCell>
        <mxCell id="h5DotFXTIVLkTxNQUzID-63" value="&lt;font style=&quot;font-size: 14px;&quot;&gt;&lt;b&gt;I2C&lt;/b&gt;&lt;/font&gt;" style="edgeLabel;html=1;align=center;verticalAlign=middle;resizable=0;points=[];rotation=0;" vertex="1" connectable="0" parent="h5DotFXTIVLkTxNQUzID-62">
          <mxGeometry x="-0.0123" y="-5" relative="1" as="geometry">
            <mxPoint x="20" y="-1" as="offset" />
          </mxGeometry>
        </mxCell>
        <mxCell id="h5DotFXTIVLkTxNQUzID-64" value="&lt;div&gt;&lt;b&gt;&lt;font style=&quot;font-size: 15px;&quot;&gt;Script for Generating Certificates &lt;br&gt;&lt;/font&gt;&lt;/b&gt;&lt;/div&gt;&lt;div&gt;(CA, server, clients, ESP32, Home Assistant)&lt;/div&gt;" style="label;whiteSpace=wrap;html=1;image=img/clipart/Gear_128x128.png;fillColor=#fad7ac;strokeColor=#b46504;" vertex="1" parent="1">
          <mxGeometry x="700" y="780" width="310" height="60" as="geometry" />
        </mxCell>
        <mxCell id="h5DotFXTIVLkTxNQUzID-69" value="&lt;div&gt;&lt;font style=&quot;font-size: 13px;&quot;&gt;MQTTs&amp;nbsp;&lt;/font&gt;&lt;/div&gt;&lt;div&gt;&lt;font style=&quot;font-size: 13px;&quot;&gt;Client&lt;/font&gt;&lt;/div&gt;" style="text;html=1;align=center;verticalAlign=middle;resizable=0;points=[];autosize=1;strokeColor=none;fillColor=none;" vertex="1" parent="1">
          <mxGeometry x="215" y="435" width="70" height="40" as="geometry" />
        </mxCell>
        <mxCell id="h5DotFXTIVLkTxNQUzID-71" style="edgeStyle=orthogonalEdgeStyle;shape=pipe;rounded=0;orthogonalLoop=1;jettySize=auto;html=1;exitX=0.5;exitY=1;exitDx=0;exitDy=0;fillColor=#d0cee2;strokeColor=#56517e;width=11.176470588235293;curved=1;startArrow=none;startFill=0;endArrow=none;endFill=0;entryX=0.5;entryY=0;entryDx=0;entryDy=0;" edge="1" parent="1" source="h5DotFXTIVLkTxNQUzID-45" target="h5DotFXTIVLkTxNQUzID-59">
          <mxGeometry relative="1" as="geometry">
            <mxPoint x="610" y="420" as="sourcePoint" />
            <mxPoint x="605" y="480" as="targetPoint" />
          </mxGeometry>
        </mxCell>
        <mxCell id="h5DotFXTIVLkTxNQUzID-72" value="&lt;b&gt;&lt;font style=&quot;font-size: 13px;&quot;&gt;Ethernet&lt;/font&gt;&lt;/b&gt;" style="edgeLabel;html=1;align=center;verticalAlign=middle;resizable=0;points=[];rotation=0;" vertex="1" connectable="0" parent="1">
          <mxGeometry x="150" y="670" as="geometry" />
        </mxCell>
        <mxCell id="h5DotFXTIVLkTxNQUzID-73" style="edgeStyle=orthogonalEdgeStyle;shape=pipe;rounded=0;orthogonalLoop=1;jettySize=auto;html=1;fillColor=#fad7ac;strokeColor=#b46504;endArrow=none;endFill=0;width=18;curved=1;flowAnimation=0;exitX=0.246;exitY=1.001;exitDx=0;exitDy=0;exitPerimeter=0;" edge="1" parent="1" source="h5DotFXTIVLkTxNQUzID-1">
          <mxGeometry relative="1" as="geometry">
            <mxPoint x="-50" y="700" as="sourcePoint" />
            <mxPoint x="-100" y="720" as="targetPoint" />
            <Array as="points">
              <mxPoint x="72" y="720" />
            </Array>
          </mxGeometry>
        </mxCell>
        <mxCell id="h5DotFXTIVLkTxNQUzID-74" value="&lt;div&gt;&lt;b&gt;&lt;font style=&quot;font-size: 15px;&quot;&gt;&amp;nbsp; Wi-Fi STA Mode&lt;/font&gt;&lt;/b&gt;&lt;/div&gt;&lt;div&gt;&lt;b&gt;&lt;font&gt;&amp;nbsp; Connect to Wi-FI Network&lt;/font&gt;&lt;/b&gt;&lt;/div&gt;" style="ellipse;shape=cloud;whiteSpace=wrap;html=1;fillColor=#bac8d3;strokeColor=#23445d;" vertex="1" parent="1">
          <mxGeometry x="-300" y="660" width="230" height="110" as="geometry" />
        </mxCell>
        <mxCell id="h5DotFXTIVLkTxNQUzID-75" value="&lt;div&gt;&lt;font&gt;On Ethernet&lt;/font&gt;&lt;/div&gt;&lt;div&gt;&lt;font&gt;Disconnected&lt;/font&gt;&lt;/div&gt;" style="text;html=1;align=center;verticalAlign=middle;resizable=0;points=[];autosize=1;strokeColor=none;fillColor=none;rotation=-10;" vertex="1" parent="1">
          <mxGeometry x="-55" y="660" width="100" height="40" as="geometry" />
        </mxCell>
        <mxCell id="h5DotFXTIVLkTxNQUzID-78" style="edgeStyle=orthogonalEdgeStyle;shape=pipe;rounded=1;orthogonalLoop=1;jettySize=auto;html=1;entryX=0;entryY=0.5;entryDx=0;entryDy=0;fillColor=#d0cee2;strokeColor=#56517e;curved=0;endArrow=none;endFill=0;startArrow=none;startFill=0;width=5.294117647058824;exitX=0.5;exitY=1;exitDx=0;exitDy=0;" edge="1" parent="1" source="h5DotFXTIVLkTxNQUzID-59" target="h5DotFXTIVLkTxNQUzID-48">
          <mxGeometry relative="1" as="geometry">
            <mxPoint x="910" y="600" as="sourcePoint" />
            <mxPoint x="1280" y="600" as="targetPoint" />
          </mxGeometry>
        </mxCell>
        <mxCell id="h5DotFXTIVLkTxNQUzID-79" value="&lt;b&gt;Running on&lt;/b&gt;" style="edgeLabel;html=1;align=center;verticalAlign=middle;resizable=0;points=[];fontSize=12;" vertex="1" connectable="0" parent="h5DotFXTIVLkTxNQUzID-78">
          <mxGeometry x="-0.179" relative="1" as="geometry">
            <mxPoint x="-17" y="-65" as="offset" />
          </mxGeometry>
        </mxCell>
        <mxCell id="h5DotFXTIVLkTxNQUzID-80" value="&lt;div&gt;&lt;font style=&quot;font-size: 13px;&quot;&gt;MQTTs&amp;nbsp;&lt;/font&gt;&lt;/div&gt;&lt;div&gt;&lt;font style=&quot;font-size: 13px;&quot;&gt;Client&lt;/font&gt;&lt;/div&gt;" style="text;html=1;align=center;verticalAlign=middle;resizable=0;points=[];autosize=1;strokeColor=none;fillColor=none;" vertex="1" parent="1">
          <mxGeometry x="600" y="390" width="70" height="40" as="geometry" />
        </mxCell>
        <mxCell id="h5DotFXTIVLkTxNQUzID-81" style="edgeStyle=orthogonalEdgeStyle;shape=pipe;rounded=1;orthogonalLoop=1;jettySize=auto;html=1;entryX=0;entryY=0.25;entryDx=0;entryDy=0;fillColor=#b1ddf0;strokeColor=#10739e;curved=0;endArrow=none;endFill=0;startArrow=none;startFill=0;width=5.294117647058824;exitX=1;exitY=0.75;exitDx=0;exitDy=0;flowAnimation=0;" edge="1" parent="1" source="h5DotFXTIVLkTxNQUzID-45" target="h5DotFXTIVLkTxNQUzID-48">
          <mxGeometry relative="1" as="geometry">
            <mxPoint x="760" y="390" as="sourcePoint" />
            <mxPoint x="925" y="475" as="targetPoint" />
          </mxGeometry>
        </mxCell>
        <mxCell id="h5DotFXTIVLkTxNQUzID-82" value="&lt;b&gt;Running on&lt;/b&gt;" style="edgeLabel;html=1;align=center;verticalAlign=middle;resizable=0;points=[];fontSize=12;" vertex="1" connectable="0" parent="h5DotFXTIVLkTxNQUzID-81">
          <mxGeometry x="-0.179" relative="1" as="geometry">
            <mxPoint x="-1" y="-64" as="offset" />
          </mxGeometry>
        </mxCell>
        <mxCell id="h5DotFXTIVLkTxNQUzID-87" value="&lt;div&gt;Config&lt;/div&gt;&lt;div&gt;Update&lt;/div&gt;" style="text;html=1;align=center;verticalAlign=middle;resizable=0;points=[];autosize=1;strokeColor=none;fillColor=none;rotation=0;" vertex="1" parent="1">
          <mxGeometry x="240" y="290" width="60" height="40" as="geometry" />
        </mxCell>
        <mxCell id="h5DotFXTIVLkTxNQUzID-88" value="" style="shape=curlyBracket;whiteSpace=wrap;html=1;rounded=1;labelPosition=left;verticalLabelPosition=middle;align=right;verticalAlign=middle;fillColor=#b0e3e6;strokeColor=#0e8088;strokeWidth=3;gradientColor=none;shadow=0;" vertex="1" parent="1">
          <mxGeometry x="20" y="70" width="20" height="140" as="geometry" />
        </mxCell>
        <mxCell id="h5DotFXTIVLkTxNQUzID-91" style="edgeStyle=orthogonalEdgeStyle;shape=pipe;rounded=1;orthogonalLoop=1;jettySize=auto;html=1;exitX=0.1;exitY=0.5;exitDx=0;exitDy=0;exitPerimeter=0;entryX=0.001;entryY=0.088;entryDx=0;entryDy=0;entryPerimeter=0;fillColor=#b0e3e6;strokeColor=#0e8088;endArrow=none;endFill=0;curved=0;" edge="1" parent="1" source="h5DotFXTIVLkTxNQUzID-88" target="h5DotFXTIVLkTxNQUzID-1">
          <mxGeometry relative="1" as="geometry">
            <Array as="points">
              <mxPoint x="-10" y="140" />
              <mxPoint x="-10" y="322" />
            </Array>
          </mxGeometry>
        </mxCell>
        <mxCell id="h5DotFXTIVLkTxNQUzID-93" style="edgeStyle=orthogonalEdgeStyle;shape=pipe;rounded=0;orthogonalLoop=1;jettySize=auto;html=1;exitX=1;exitY=0.5;exitDx=0;exitDy=0;entryX=0.489;entryY=-0.104;entryDx=0;entryDy=0;entryPerimeter=0;fillColor=#d0cee2;strokeColor=#56517e;curved=1;" edge="1" parent="1" source="h5DotFXTIVLkTxNQUzID-5" target="h5DotFXTIVLkTxNQUzID-69">
          <mxGeometry relative="1" as="geometry" />
        </mxCell>
        <mxCell id="h5DotFXTIVLkTxNQUzID-94" style="edgeStyle=orthogonalEdgeStyle;shape=pipe;rounded=0;orthogonalLoop=1;jettySize=auto;html=1;exitX=0.5;exitY=1;exitDx=0;exitDy=0;fillColor=#b0e3e6;strokeColor=#0e8088;" edge="1" parent="1" source="h5DotFXTIVLkTxNQUzID-3">
          <mxGeometry relative="1" as="geometry">
            <mxPoint x="120" y="280" as="targetPoint" />
          </mxGeometry>
        </mxCell>
        <mxCell id="h5DotFXTIVLkTxNQUzID-95" value="&lt;div&gt;Firmware&lt;/div&gt;&lt;div&gt;Update&lt;/div&gt;" style="text;html=1;align=center;verticalAlign=middle;resizable=0;points=[];autosize=1;strokeColor=none;fillColor=none;" vertex="1" parent="1">
          <mxGeometry x="55" y="220" width="70" height="40" as="geometry" />
        </mxCell>
        <mxCell id="h5DotFXTIVLkTxNQUzID-100" value="&lt;div&gt;&lt;font style=&quot;font-size: 14px;&quot;&gt;&lt;b&gt;Wi-Fi AP Mode&lt;/b&gt;&lt;/font&gt;&lt;/div&gt;&lt;div&gt;&lt;font style=&quot;font-size: 14px;&quot;&gt;&lt;b&gt;- Hotspot -&lt;/b&gt;&lt;/font&gt;&lt;/div&gt;" style="ellipse;shape=cloud;whiteSpace=wrap;html=1;fillColor=#bac8d3;strokeColor=#23445d;" vertex="1" parent="1">
          <mxGeometry x="30" y="-70" width="180" height="100" as="geometry" />
        </mxCell>
        <mxCell id="h5DotFXTIVLkTxNQUzID-101" style="edgeStyle=orthogonalEdgeStyle;shape=pipe;rounded=1;orthogonalLoop=1;jettySize=auto;html=1;endArrow=none;endFill=0;fillColor=#bac8d3;strokeColor=#23445d;curved=0;" edge="1" parent="1">
          <mxGeometry relative="1" as="geometry">
            <mxPoint x="20" y="-20" as="sourcePoint" />
            <mxPoint x="25" y="340" as="targetPoint" />
            <Array as="points">
              <mxPoint x="-30" y="-20" />
              <mxPoint x="-30" y="340" />
            </Array>
          </mxGeometry>
        </mxCell>
        <mxCell id="h5DotFXTIVLkTxNQUzID-103" value="" style="shape=curlyBracket;whiteSpace=wrap;html=1;rounded=1;labelPosition=left;verticalLabelPosition=middle;align=right;verticalAlign=middle;fillColor=#bac8d3;strokeWidth=3;shadow=0;strokeColor=#23445d;" vertex="1" parent="1">
          <mxGeometry x="20" y="-70" width="20" height="100" as="geometry" />
        </mxCell>
        <mxCell id="h5DotFXTIVLkTxNQUzID-108" value="" style="image;points=[];aspect=fixed;html=1;align=center;shadow=0;dashed=0;image=img/lib/allied_telesis/computer_and_terminals/Personal_Computer_with_Server.svg;" vertex="1" parent="1">
          <mxGeometry x="553.8" y="-87.94999999999999" width="102.4" height="102.4" as="geometry" />
        </mxCell>
        <mxCell id="h5DotFXTIVLkTxNQUzID-109" value="" style="image;html=1;image=img/lib/clip_art/computers/Server_128x128.png" vertex="1" parent="1">
          <mxGeometry x="820" y="690" width="80" height="80" as="geometry" />
        </mxCell>
        <mxCell id="h5DotFXTIVLkTxNQUzID-110" value="&lt;div&gt;&lt;b&gt;&lt;font style=&quot;font-size: 15px;&quot;&gt;Firmware Update Script &lt;br&gt;&lt;/font&gt;&lt;/b&gt;&lt;/div&gt;&lt;div&gt;(Auto-connects to Wi-Fi AP and uploads code)&lt;/div&gt;" style="label;whiteSpace=wrap;html=1;image=img/clipart/Gear_128x128.png;fillColor=#fad7ac;strokeColor=#b46504;" vertex="1" parent="1">
          <mxGeometry x="695" y="850" width="320" height="60" as="geometry" />
        </mxCell>
        <mxCell id="h5DotFXTIVLkTxNQUzID-111" value="" style="verticalLabelPosition=bottom;sketch=0;html=1;fillColor=#A153A0;strokeColor=#ffffff;verticalAlign=top;align=center;points=[[0,0.5,0],[0.125,0.25,0],[0.25,0,0],[0.5,0,0],[0.75,0,0],[0.875,0.25,0],[1,0.5,0],[0.875,0.75,0],[0.75,1,0],[0.5,1,0],[0.125,0.75,0]];pointerEvents=1;shape=mxgraph.cisco_safe.compositeIcon;bgIcon=mxgraph.cisco_safe.design.blank_device;resIcon=mxgraph.cisco_safe.design.sensor;" vertex="1" parent="1">
          <mxGeometry x="-180" y="541" width="40" height="29" as="geometry" />
        </mxCell>
        <mxCell id="h5DotFXTIVLkTxNQUzID-112" value="" style="sketch=0;outlineConnect=0;fontColor=#232F3E;gradientColor=none;fillColor=#7AA116;strokeColor=none;dashed=0;verticalLabelPosition=bottom;verticalAlign=top;align=center;html=1;fontSize=12;fontStyle=0;aspect=fixed;pointerEvents=1;shape=mxgraph.aws4.iot_thing_humidity_sensor;" vertex="1" parent="1">
          <mxGeometry x="-230" y="541" width="28" height="28" as="geometry" />
        </mxCell>
        <mxCell id="h5DotFXTIVLkTxNQUzID-113" value="" style="outlineConnect=0;dashed=0;verticalLabelPosition=bottom;verticalAlign=top;align=center;html=1;shape=mxgraph.aws3.hardware_board;fillColor=#5294CF;gradientColor=none;rotation=-90;" vertex="1" parent="1">
          <mxGeometry x="90" y="310" width="84" height="130.5" as="geometry" />
        </mxCell>
        <mxCell id="h5DotFXTIVLkTxNQUzID-114" value="" style="verticalLabelPosition=bottom;html=1;verticalAlign=top;align=center;strokeColor=none;fillColor=#00BEF2;shape=mxgraph.azure.notification_topic;" vertex="1" parent="1">
          <mxGeometry x="470" y="120" width="40" height="40" as="geometry" />
        </mxCell>
        <mxCell id="h5DotFXTIVLkTxNQUzID-117" value="" style="sketch=0;outlineConnect=0;fontColor=#232F3E;gradientColor=none;fillColor=#E7157B;strokeColor=none;dashed=0;verticalLabelPosition=bottom;verticalAlign=top;align=center;html=1;fontSize=12;fontStyle=0;aspect=fixed;pointerEvents=1;shape=mxgraph.aws4.mq_broker;" vertex="1" parent="1">
          <mxGeometry x="580.35" y="560" width="49.3" height="43.62" as="geometry" />
        </mxCell>
        <mxCell id="h5DotFXTIVLkTxNQUzID-118" value="" style="outlineConnect=0;dashed=0;verticalLabelPosition=bottom;verticalAlign=top;align=center;html=1;shape=mxgraph.aws3.user;fillColor=#bac8d3;strokeColor=#23445d;" vertex="1" parent="1">
          <mxGeometry x="670" y="-70" width="55" height="73" as="geometry" />
        </mxCell>
        <mxCell id="h5DotFXTIVLkTxNQUzID-119" value="" style="sketch=0;verticalLabelPosition=bottom;sketch=0;aspect=fixed;html=1;verticalAlign=top;strokeColor=none;fillColor=#000000;align=center;outlineConnect=0;pointerEvents=1;shape=mxgraph.citrix2.wifi_router;" vertex="1" parent="1">
          <mxGeometry x="144.1" y="-90" width="31.95" height="32.01" as="geometry" />
        </mxCell>
        <mxCell id="h5DotFXTIVLkTxNQUzID-120" value="" style="sketch=0;pointerEvents=1;shadow=0;dashed=0;html=1;strokeColor=none;fillColor=#434445;aspect=fixed;labelPosition=center;verticalLabelPosition=bottom;verticalAlign=top;align=center;outlineConnect=0;shape=mxgraph.vvd.wi_fi;" vertex="1" parent="1">
          <mxGeometry x="-140" y="640" width="30" height="30" as="geometry" />
        </mxCell>
      </root>
    </mxGraphModel>
  </diagram>
</mxfile>
